<?xml version="1.0" encoding="UTF-8"?>
<svg width="25px" height="25px" viewBox="0 0 25 25" version="1.1" xmlns="http://www.w3.org/2000/svg" xmlns:xlink="http://www.w3.org/1999/xlink">
    <title>F</title>
    <defs>
        <polygon id="path-1" points="6.99887949 1.60352464 17.989843 1.60352464 17.989843 22.3964754 6.99887949 22.3964754"></polygon>
    </defs>
    <g id="页面-1" stroke="none" stroke-width="1" fill="none" fill-rule="evenodd">
        <g id="切图20220208" transform="translate(-1415.000000, -72.000000)">
            <g id="社交链接" transform="translate(1378.150728, 72.905911)">
                <g id="编组" transform="translate(37.600000, 0.000000)">
                    <mask id="mask-2" fill="white">
                        <use xlink:href="#path-1"></use>
                    </mask>
                    <g id="Clip-2"></g>
                    <path d="M17.989843,5.09561592 L17.989843,1.97408627 C17.989843,1.97408627 13.8174908,0.617084992 11.510482,3.093719 C11.510482,3.093719 10.2889675,4.24695672 10.3908493,6.92735428 L10.3849817,9.53947505 L6.99887949,9.53947505 L6.99887949,13.3053669 L10.3231059,13.3053669 L10.3231059,22.3968488 L14.2922279,22.3968488 L14.2580895,13.3731103 L17.3113424,13.3389719 L17.989843,9.50587006 L14.2922279,9.50587006 L14.2580895,6.8254725 C14.2580895,6.8254725 14.2922279,4.89185237 16.5992368,5.02733913 L17.989843,5.09561592 Z" id="Fill-1" fill-opacity="0.727648328" fill="#777EFF" mask="url(#mask-2)"></path>
                </g>
            </g>
        </g>
    </g>
</svg>