<?xml version="1.0" encoding="UTF-8"?>
<svg width="31px" height="30px" viewBox="0 0 31 30" version="1.1" xmlns="http://www.w3.org/2000/svg" xmlns:xlink="http://www.w3.org/1999/xlink">
    <title>F</title>
    <defs>
        <polygon id="path-1" points="8.74859936 2.0044058 22.4873038 2.0044058 22.4873038 27.9955942 8.74859936 27.9955942"></polygon>
    </defs>
    <g id="切图" stroke="none" stroke-width="1" fill="none" fill-rule="evenodd">
        <g transform="translate(-1496.000000, -84.000000)" id="导航">
            <g id="社交链接" transform="translate(1449.150728, 84.000000)">
                <g id="编组" transform="translate(47.000000, 0.000000)">
                    <mask id="mask-2" fill="white">
                        <use xlink:href="#path-1"></use>
                    </mask>
                    <g id="Clip-2"></g>
                    <path d="M22.4873038,6.36951991 L22.4873038,2.46760783 C22.4873038,2.46760783 17.2718636,0.77135624 14.3881025,3.86714875 C14.3881025,3.86714875 12.8612094,5.3086959 12.9885616,8.65919285 L12.9812272,11.9243438 L8.74859936,11.9243438 L8.74859936,16.6317087 L12.9038823,16.6317087 L12.9038823,27.9960609 L17.8652849,27.9960609 L17.8226119,16.7163879 L21.639178,16.6737149 L22.4873038,11.8823376 L17.8652849,11.8823376 L17.8226119,8.53184063 C17.8226119,8.53184063 17.8652849,6.11481546 20.749046,6.28417391 L22.4873038,6.36951991 Z" id="Fill-1" fill="#504B92" mask="url(#mask-2)"></path>
                </g>
            </g>
        </g>
    </g>
</svg>