<?xml version="1.0" encoding="UTF-8"?>
<svg width="31px" height="30px" viewBox="0 0 31 30" version="1.1" xmlns="http://www.w3.org/2000/svg" xmlns:xlink="http://www.w3.org/1999/xlink">
    <title>r</title>
    <defs>
        <polygon id="path-1" points="1.10270747 3.79614591 28.6822491 3.79614591 28.6822491 26.7961459 1.10270747 26.7961459"></polygon>
    </defs>
    <g id="切图" stroke="none" stroke-width="1" fill="none" fill-rule="evenodd">
        <g transform="translate(-1598.000000, -84.000000)" id="导航">
            <g id="社交链接" transform="translate(1449.150728, 84.000000)">
                <g id="编组" transform="translate(149.000000, 0.000000)">
                    <mask id="mask-2" fill="white">
                        <use xlink:href="#path-1"></use>
                    </mask>
                    <g id="Clip-2"></g>
                    <path d="M18.576237,19.0938914 C17.5307825,19.0938914 16.6831491,18.246258 16.6831491,17.2008034 C16.6831491,16.1553489 17.5307825,15.3077154 18.576237,15.3077154 C19.6216916,15.3077154 20.469325,16.1553489 20.469325,17.2008034 C20.469325,18.246258 19.6216916,19.0938914 18.576237,19.0938914 M18.6961286,22.4316729 C18.0109483,23.4813237 16.4583524,24.1593105 14.7403061,24.1593105 C13.0216603,24.1593105 11.4696639,23.4813237 10.783884,22.4316729 C10.6939654,22.2931981 10.7329301,22.1073662 10.8714049,22.0168481 C11.0098797,21.9275288 11.1957116,21.9652947 11.2862297,22.1037695 C11.8635077,22.9885693 13.218882,23.5598526 14.7403061,23.5598526 C16.2611307,23.5598526 17.616505,22.9885693 18.1937829,22.1037695 C18.2849005,21.9658941 18.470133,21.9275288 18.6086078,22.0168481 C18.7470825,22.1073662 18.7866468,22.2931981 18.6961286,22.4316729 M9.01068763,17.2008034 C9.01068763,16.1553489 9.85832108,15.3077154 10.9037756,15.3077154 C11.9492302,15.3077154 12.7968636,16.1553489 12.7968636,17.2008034 C12.7968636,18.246258 11.9492302,19.0938914 10.9037756,19.0938914 C9.85832108,19.0938914 9.01068763,18.246258 9.01068763,17.2008034 M23.0098275,4.99464205 C23.8190957,4.99464205 24.4778999,5.65344627 24.4778999,6.46271441 C24.4778999,7.27198255 23.8190957,7.93078676 23.0098275,7.93078676 C22.2005594,7.93078676 21.5417552,7.27198255 21.5417552,6.46271441 C21.5417552,5.65344627 22.2005594,4.99464205 23.0098275,4.99464205 M27.0106094,11.6300413 C25.4196482,10.4563028 23.387486,10.5120524 22.4523317,11.7463362 C20.6083993,10.5186464 18.2387423,9.7249642 15.6227081,9.5768981 C15.9218375,8.36299589 16.3474526,6.57061682 16.5680531,5.63606199 L20.3482345,6.41415832 C20.3476351,6.43034368 20.3428394,6.44592958 20.3428394,6.46271441 C20.3428394,7.93318459 21.5393574,9.12970252 23.0098275,9.12970252 C24.4802977,9.12970252 25.6768157,7.93318459 25.6768157,6.46271441 C25.6768157,4.99224422 24.4802977,3.79572629 23.0098275,3.79572629 C21.9775611,3.79572629 21.0903634,4.39158742 20.647364,5.25121003 L15.6682669,4.22613705 L15.5345878,4.79382366 C15.1928968,6.24690957 14.6857554,8.37498505 14.3926205,9.55771545 C11.6542969,9.61826069 9.1563559,10.3825695 7.21291344,11.6210495 C6.23519764,10.5198453 4.30494326,10.5006627 2.77452729,11.6300413 C1.17337529,12.8115728 0.627269157,14.7879855 1.55403104,16.0450486 C1.95686674,16.5905553 2.57670619,16.8968783 3.2738757,16.9879959 C3.20254022,17.3758451 3.15278521,17.7684901 3.15278521,18.1707263 C3.15278521,22.9346181 8.34049372,26.7963257 14.7403061,26.7963257 C21.1395189,26.7963257 26.3278269,22.9346181 26.3278269,18.1707263 C26.3278269,17.7816781 26.2810692,17.4010224 26.2139299,17.0251623 C27.0339883,16.9957888 27.770722,16.6678854 28.2305062,16.0450486 C29.1578676,14.7879855 28.6117614,12.8115728 27.0106094,11.6300413" id="Fill-1" fill="#504B92" mask="url(#mask-2)"></path>
                </g>
            </g>
        </g>
    </g>
</svg>