<?xml version="1.0" encoding="UTF-8"?>
<svg width="25px" height="25px" viewBox="0 0 25 25" version="1.1" xmlns="http://www.w3.org/2000/svg" xmlns:xlink="http://www.w3.org/1999/xlink">
    <title>r</title>
    <defs>
        <polygon id="path-1" points="0.882165973 3.03691673 22.9457992 3.03691673 22.9457992 21.4369167 0.882165973 21.4369167"></polygon>
    </defs>
    <g id="页面-1" stroke="none" stroke-width="1" fill="none" fill-rule="evenodd">
        <g id="切图20220208" transform="translate(-1497.000000, -72.000000)">
            <g id="社交链接" transform="translate(1378.150728, 72.905911)">
                <g id="编组" transform="translate(119.200000, 0.000000)">
                    <mask id="mask-2" fill="white">
                        <use xlink:href="#path-1"></use>
                    </mask>
                    <g id="Clip-2"></g>
                    <path d="M14.8609896,15.2751131 C14.024626,15.2751131 13.3465192,14.5970064 13.3465192,13.7606428 C13.3465192,12.9242791 14.024626,12.2461724 14.8609896,12.2461724 C15.6973533,12.2461724 16.37546,12.9242791 16.37546,13.7606428 C16.37546,14.5970064 15.6973533,15.2751131 14.8609896,15.2751131 M14.9569029,17.9453383 C14.4087586,18.7850589 13.1666819,19.3274484 11.7922449,19.3274484 C10.4173283,19.3274484 9.17573109,18.7850589 8.62710724,17.9453383 C8.55517229,17.8345585 8.5863441,17.685893 8.69712392,17.6134784 C8.80790373,17.5420231 8.95656929,17.5722357 9.0289838,17.6830156 C9.49080615,18.3908554 10.5751056,18.8478821 11.7922449,18.8478821 C13.0089046,18.8478821 14.093204,18.3908554 14.5550263,17.6830156 C14.6279204,17.5727153 14.7761064,17.5420231 14.8868862,17.6134784 C14.997666,17.685893 15.0293174,17.8345585 14.9569029,17.9453383 M7.2085501,13.7606428 C7.2085501,12.9242791 7.88665686,12.2461724 8.7230205,12.2461724 C9.55938413,12.2461724 10.2374909,12.9242791 10.2374909,13.7606428 C10.2374909,14.5970064 9.55938413,15.2751131 8.7230205,15.2751131 C7.88665686,15.2751131 7.2085501,14.5970064 7.2085501,13.7606428 M18.407862,3.99571364 C19.0552765,3.99571364 19.5823199,4.52275701 19.5823199,5.17017152 C19.5823199,5.81758604 19.0552765,6.34462941 18.407862,6.34462941 C17.7604475,6.34462941 17.2334041,5.81758604 17.2334041,5.17017152 C17.2334041,4.52275701 17.7604475,3.99571364 18.407862,3.99571364 M21.6084876,9.30403308 C20.3357186,8.36504225 18.7099888,8.40964192 17.9618654,9.39706894 C16.4867194,8.41491715 14.5909938,7.77997136 12.4981665,7.66151848 C12.73747,6.69039671 13.0779621,5.25649346 13.2544425,4.50884959 L16.2785876,5.13132665 C16.2781081,5.14427494 16.2742715,5.15674367 16.2742715,5.17017152 C16.2742715,6.34654767 17.2314859,7.30376202 18.407862,7.30376202 C19.5842382,7.30376202 20.5414525,6.34654767 20.5414525,5.17017152 C20.5414525,3.99379538 19.5842382,3.03658103 18.407862,3.03658103 C17.5820489,3.03658103 16.8722907,3.51326994 16.5178912,4.20096802 L12.5346135,3.38090964 L12.4276702,3.83505893 C12.1543174,4.99752765 11.7486043,6.69998804 11.5140964,7.64617236 C9.32343751,7.69460856 7.32508472,8.30605559 5.77033076,9.29683958 C4.98815811,8.41587628 3.44395461,8.40053016 2.21962183,9.30403308 C0.93870023,10.2492583 0.501815326,11.8303884 1.24322483,12.8360389 C1.56549339,13.2724443 2.06136495,13.5175026 2.61910056,13.5903967 C2.56203217,13.9006761 2.52222817,14.214792 2.52222817,14.536581 C2.52222817,18.3476945 6.67239498,21.4370606 11.7922449,21.4370606 C16.9116152,21.4370606 21.0622615,18.3476945 21.0622615,14.536581 C21.0622615,14.2253425 21.0248554,13.9208179 20.9711439,13.6201298 C21.6271906,13.5966311 22.2165776,13.3343083 22.584405,12.8360389 C23.3262941,11.8303884 22.8894092,10.2492583 21.6084876,9.30403308" id="Fill-1" fill-opacity="0.727648328" fill="#777EFF" mask="url(#mask-2)"></path>
                </g>
            </g>
        </g>
    </g>
</svg>