<?xml version="1.0" encoding="UTF-8"?>
<svg width="25px" height="25px" viewBox="0 0 25 25" version="1.1" xmlns="http://www.w3.org/2000/svg" xmlns:xlink="http://www.w3.org/1999/xlink">
    <title>T</title>
    <defs>
        <polygon id="path-1" points="1.6 3.6 22.158835 3.6 22.158835 20.4 1.6 20.4"></polygon>
    </defs>
    <g id="页面-1" stroke="none" stroke-width="1" fill="none" fill-rule="evenodd">
        <g id="切图20220208" transform="translate(-1378.000000, -72.000000)">
            <g id="编组" transform="translate(1378.150728, 72.905911)">
                <mask id="mask-2" fill="white">
                    <use xlink:href="#path-1"></use>
                </mask>
                <g id="Clip-2"></g>
                <path d="M21.5696588,3.95736579 C21.5696588,3.95736579 20.2176049,4.71998261 18.9693545,4.89316236 C18.9693545,4.89316236 17.2359922,2.77849163 13.9768746,3.95736579 C10.717757,5.13623995 11.7490111,8.88046946 11.7490111,8.88046946 C11.7490111,8.88046946 6.62716801,8.86273419 3.02116931,4.44299935 C3.02116931,4.44299935 0.97587481,7.51068029 4.20004347,10.007181 C4.20004347,10.007181 3.57930885,10.2147881 2.38165616,9.55597479 C2.38165616,9.55597479 2.05094545,12.6768616 5.65642252,13.7164616 C5.65642252,13.7164616 4.89380569,14.09777 3.85368398,13.7164616 C3.85368398,13.7164616 4.26941969,16.4899457 7.70171702,16.7330233 C7.70171702,16.7330233 5.79517496,18.9514975 1.59973919,18.5013345 C1.59973919,18.5013345 9.29476201,23.5496283 16.3346229,17.1831863 C19.5932189,14.2365225 20.1482286,10.1803608 20.1132797,7.78818518 C20.1132797,7.78818518 21.4309063,6.88681591 22.1590958,5.63908715 C22.1590958,5.63908715 21.2227777,6.08925016 19.8362965,6.22852423 C19.8362965,6.22852423 21.1883504,5.63908715 21.5696588,3.95736579" id="Fill-1" fill-opacity="0.727648328" fill="#777EFF" mask="url(#mask-2)"></path>
            </g>
        </g>
    </g>
</svg>