<?xml version="1.0" encoding="UTF-8"?>
<svg width="31px" height="30px" viewBox="0 0 31 30" version="1.1" xmlns="http://www.w3.org/2000/svg" xmlns:xlink="http://www.w3.org/1999/xlink">
    <title>T</title>
    <defs>
        <polygon id="path-1" points="2 4.5 27.6985438 4.5 27.6985438 25.5 2 25.5"></polygon>
    </defs>
    <g id="切图" stroke="none" stroke-width="1" fill="none" fill-rule="evenodd">
        <g transform="translate(-1449.000000, -84.000000)" id="导航">
            <g id="编组" transform="translate(1449.150728, 84.000000)">
                <mask id="mask-2" fill="white">
                    <use xlink:href="#path-1"></use>
                </mask>
                <g id="Clip-2"></g>
                <path d="M26.9620735,4.94670724 C26.9620735,4.94670724 25.2720061,5.89997827 23.7116931,6.11645295 C23.7116931,6.11645295 21.5449902,3.47311454 17.4710932,4.94670724 C13.3971963,6.42029993 14.6862639,11.1005868 14.6862639,11.1005868 C14.6862639,11.1005868 8.28396001,11.0784177 3.77646164,5.55374918 C3.77646164,5.55374918 1.21984351,9.38835036 5.25005434,12.5089763 C5.25005434,12.5089763 4.47413606,12.7684851 2.9770702,11.9449685 C2.9770702,11.9449685 2.56368181,15.8460769 7.07052815,17.145577 C7.07052815,17.145577 6.11725712,17.6222126 4.81710498,17.145577 C4.81710498,17.145577 5.33677461,20.6124321 9.62714627,20.9162791 C9.62714627,20.9162791 7.2439687,23.6893719 1.99967398,23.1266681 C1.99967398,23.1266681 11.6184525,29.4370354 20.4182786,21.4789828 C24.4915236,17.7956531 25.1852858,12.725451 25.1415997,9.73523147 C25.1415997,9.73523147 26.7886329,8.60851989 27.6988698,7.04885894 C27.6988698,7.04885894 26.5284721,7.6115627 24.7953706,7.78565529 C24.7953706,7.78565529 26.4854379,7.04885894 26.9620735,4.94670724" id="Fill-1" fill="#504B92" mask="url(#mask-2)"></path>
            </g>
        </g>
    </g>
</svg>