<?xml version="1.0" encoding="UTF-8"?>
<svg width="35px" height="35px" viewBox="0 0 35 35" version="1.1" xmlns="http://www.w3.org/2000/svg" xmlns:xlink="http://www.w3.org/1999/xlink">
    <title>编组</title>
    <defs>
        <polygon id="path-1" points="4.0595011 5.50881159 31.6390427 5.50881159 31.6390427 28.5088116 4.0595011 28.5088116"></polygon>
    </defs>
    <g id="页面-1" stroke="none" stroke-width="1" fill="none" fill-rule="evenodd">
        <g id="切图20220208" transform="translate(-1193.000000, -5520.000000)">
            <g id="编组-14" transform="translate(1167.159091, 5289.990637)">
                <g id="编组" transform="translate(26.236312, 230.490637)">
                    <mask id="mask-2" fill="white">
                        <use xlink:href="#path-1"></use>
                    </mask>
                    <g id="Clip-2"></g>
                    <path d="M21.5330307,20.8065571 C20.4875761,20.8065571 19.6399427,19.9589237 19.6399427,18.9134691 C19.6399427,17.8680146 20.4875761,17.0203811 21.5330307,17.0203811 C22.5784852,17.0203811 23.4261187,17.8680146 23.4261187,18.9134691 C23.4261187,19.9589237 22.5784852,20.8065571 21.5330307,20.8065571 M21.6529223,24.1443386 C20.9677419,25.1939893 19.415146,25.8719762 17.6970997,25.8719762 C15.978454,25.8719762 14.4264575,25.1939893 13.7406777,24.1443386 C13.650759,24.0058638 13.6897238,23.8200319 13.8281985,23.7295137 C13.9666733,23.6401945 14.1525052,23.6779604 14.2430234,23.8164351 C14.8203013,24.701235 16.1756756,25.2725183 17.6970997,25.2725183 C19.2179243,25.2725183 20.5732986,24.701235 21.1505766,23.8164351 C21.2416942,23.6785598 21.4269266,23.6401945 21.5654014,23.7295137 C21.7038762,23.8200319 21.7434404,24.0058638 21.6529223,24.1443386 M11.9674813,18.9134691 C11.9674813,17.8680146 12.8151147,17.0203811 13.8605693,17.0203811 C14.9060238,17.0203811 15.7536572,17.8680146 15.7536572,18.9134691 C15.7536572,19.9589237 14.9060238,20.8065571 13.8605693,20.8065571 C12.8151147,20.8065571 11.9674813,19.9589237 11.9674813,18.9134691 M25.9666212,6.70730773 C26.7758893,6.70730773 27.4346935,7.36611194 27.4346935,8.17538009 C27.4346935,8.98464823 26.7758893,9.64345244 25.9666212,9.64345244 C25.157353,9.64345244 24.4985488,8.98464823 24.4985488,8.17538009 C24.4985488,7.36611194 25.157353,6.70730773 25.9666212,6.70730773 M29.9674031,13.342707 C28.3764419,12.1689685 26.3442796,12.2247181 25.4091253,13.4590019 C23.5651929,12.2313121 21.1955359,11.4376299 18.5795017,11.2895638 C18.8786312,10.0756616 19.3042463,8.2832825 19.5248468,7.34872767 L23.3050282,8.126824 C23.3044287,8.14300936 23.2996331,8.15859526 23.2996331,8.17538009 C23.2996331,9.64585027 24.496151,10.8423682 25.9666212,10.8423682 C27.4370914,10.8423682 28.6336093,9.64585027 28.6336093,8.17538009 C28.6336093,6.7049099 27.4370914,5.50839197 25.9666212,5.50839197 C24.9343547,5.50839197 24.047157,6.1042531 23.6041577,6.96387571 L18.6250605,5.93880273 L18.4913814,6.50648934 C18.1496904,7.95957525 17.642549,10.0876507 17.3494141,11.2703811 C14.6110905,11.3309264 12.1131495,12.0952352 10.1697071,13.3337152 C9.19199127,12.232511 7.26173689,12.2133284 5.73132092,13.342707 C4.13016892,14.5242385 3.58406279,16.5006511 4.51082468,17.7577143 C4.91366037,18.303221 5.53349982,18.609544 6.23066934,18.7006616 C6.15933385,19.0885108 6.10957885,19.4811557 6.10957885,19.883392 C6.10957885,24.6472838 11.2972874,28.5089914 17.6970997,28.5089914 C24.0963126,28.5089914 29.2846205,24.6472838 29.2846205,19.883392 C29.2846205,19.4943438 29.2378628,19.1136881 29.1707236,18.737828 C29.9907819,18.7084545 30.7275157,18.3805511 31.1872999,17.7577143 C32.1146612,16.5006511 31.5685551,14.5242385 29.9674031,13.342707" id="Fill-1" fill="#FFFFFF" mask="url(#mask-2)"></path>
                </g>
            </g>
        </g>
    </g>
</svg>