<?xml version="1.0" encoding="UTF-8"?>
<svg width="35px" height="35px" viewBox="0 0 35 35" version="1.1" xmlns="http://www.w3.org/2000/svg" xmlns:xlink="http://www.w3.org/1999/xlink">
    <title>编组</title>
    <defs>
        <polygon id="path-1" points="5 7 30.6985438 7 30.6985438 28 5 28"></polygon>
    </defs>
    <g id="页面-1" stroke="none" stroke-width="1" fill="none" fill-rule="evenodd">
        <g id="切图20220208" transform="translate(-1193.000000, -5367.000000)">
            <g id="编组-14" transform="translate(1167.159091, 5289.990637)">
                <g id="编组" transform="translate(26.236312, 77.490637)">
                    <mask id="mask-2" fill="white">
                        <use xlink:href="#path-1"></use>
                    </mask>
                    <g id="Clip-2"></g>
                    <path d="M29.9620735,7.44670724 C29.9620735,7.44670724 28.2720061,8.39997827 26.7116931,8.61645295 C26.7116931,8.61645295 24.5449902,5.97311454 20.4710932,7.44670724 C16.3971963,8.92029993 17.6862639,13.6005868 17.6862639,13.6005868 C17.6862639,13.6005868 11.28396,13.5784177 6.77646164,8.05374918 C6.77646164,8.05374918 4.21984351,11.8883504 8.25005434,15.0089763 C8.25005434,15.0089763 7.47413606,15.2684851 5.9770702,14.4449685 C5.9770702,14.4449685 5.56368181,18.3460769 10.0705281,19.645577 C10.0705281,19.645577 9.11725712,20.1222126 7.81710498,19.645577 C7.81710498,19.645577 8.33677461,23.1124321 12.6271463,23.4162791 C12.6271463,23.4162791 10.2439687,26.1893719 4.99967398,25.6266681 C4.99967398,25.6266681 14.6184525,31.9370354 23.4182786,23.9789828 C27.4915236,20.2956531 28.1852858,15.225451 28.1415997,12.2352315 C28.1415997,12.2352315 29.7886329,11.1085199 30.6988698,9.54885894 C30.6988698,9.54885894 29.5284721,10.1115627 27.7953706,10.2856553 C27.7953706,10.2856553 29.4854379,9.54885894 29.9620735,7.44670724" id="Fill-1" fill="#FFFFFF" mask="url(#mask-2)"></path>
                </g>
            </g>
        </g>
    </g>
</svg>